M48
; DRILL file KiCad 10.0.3 date 2026-07-08T21:08:09
; FORMAT={-:-/ absolute / metric / decimal}
; #@! TF.CreationDate,2026-07-08T21:08:09-04:00
; #@! TF.GenerationSoftware,Kicad,Pcbnew,10.0.3
; #@! TF.FileFunction,Plated,1,2,PTH
FMAT,2
METRIC
; #@! TA.AperFunction,Plated,PTH,ViaDrill
T1C0.300
; #@! TA.AperFunction,Plated,PTH,ComponentDrill
T2C0.500
; #@! TA.AperFunction,Plated,PTH,ComponentDrill
T3C2.200
%
G90
G05
T1
X106.045Y-44.069
X108.458Y-50.038
X114.3Y-47.625
X114.3Y-49.022
X115.443Y-41.783
X115.57Y-52.451
X115.57Y-53.467
X115.697Y-58.039
X118.618Y-43.18
X120.142Y-38.085
X120.142Y-39.624
X120.777Y-35.56
X121.793Y-45.593
X124.064Y-55.753
X124.333Y-67.183
X126.238Y-45.72
X126.238Y-50.419
X126.634Y-55.103
X128.143Y-37.211
X128.905Y-58.928
X130.81Y-41.148
X132.588Y-49.911
X133.096Y-41.148
X134.62Y-45.466
X134.874Y-62.357
X140.462Y-52.451
T2
X121.19Y-68.707
X122.19Y-68.707
X122.5Y-35.5
X123.19Y-68.707
X123.5Y-35.5
X124.19Y-68.707
X124.5Y-35.5
X125.5Y-35.5
X128.5Y-35.5
X129.5Y-35.5
X130.5Y-35.5
X131.5Y-35.5
T3
X103.165Y-68.082
X103.226Y-35.712
X139.5Y-35.5
X139.5Y-68.0
T2
G00X139.55Y-43.294
M15
G01X138.85Y-43.294
M16
G05
G00X139.55Y-49.894
M15
G01X138.85Y-49.894
M16
G05
M30
